<svg xmlns="http://www.w3.org/2000/svg" width="1300" height="1300"><path d="M37.5 16.397c-9.518 3.014-16.785 9.583-20.094 18.162C15.539 39.399 15.5 51.717 15.5 635.5v596l2.382 5.27c3.233 7.155 11.594 14.731 18.459 16.727 4.61 1.34 72.185 1.481 601.676 1.256l596.483-.253 5.333-2.954c5.825-3.227 9.081-6.604 12.465-12.93l2.202-4.116.253-596.483c.225-529.491.084-597.066-1.256-601.676-1.996-6.865-9.572-15.226-16.727-18.459l-5.27-2.382-595-.185c-477.834-.148-595.788.065-599 1.082m944.377 616.381L927.253 745.5l7.124 3.305c3.917 1.818 7.901 3.393 8.852 3.5 1.357.153 12.203-21.35 50.341-99.805 26.737-55 51.243-105.521 54.459-112.27l5.847-12.27-7.916-3.98c-4.353-2.189-8.263-3.967-8.688-3.952-.425.016-25.353 50.753-55.395 112.75m-790.21-82.111c-.367.366-.667 40.191-.667 88.5V727h22v-76.062l12.187.281 12.188.281 24.009 37.75L285.393 727h26.62l-26.007-38.99C271.703 666.565 260 648.843 260 648.628c0-.215 2.137-.929 4.75-1.586 7.61-1.916 18.225-8.068 24.475-14.183 10.979-10.743 15.686-26.758 12.548-42.687-4.926-25.006-22.086-36.743-57.273-39.175-15.993-1.105-51.834-1.329-52.833-.33M213 601v33l15.25-.02c24.596-.032 33.349-2.009 41.503-9.376 6.488-5.861 8.698-12.12 8.688-24.604-.01-11.909-1.115-15.419-6.852-21.77-7.026-7.777-17.099-10.178-42.839-10.21L213 568v33m643.42-25.75c.87 4.276 1.671 48.75.877 48.727-.439-.012-11.372-3.792-24.297-8.399l-23.5-8.376-3.354 9.961c-1.845 5.479-3.195 10.084-3 10.232.195.149 10.929 3.341 23.854 7.093 12.925 3.753 23.835 7.11 24.243 7.461.409.351-6.281 9.753-14.867 20.893-8.586 11.141-15.446 20.364-15.244 20.497.203.132 3.841 2.81 8.086 5.951 4.246 3.14 8.071 5.696 8.5 5.68.43-.017 7.238-9.498 15.13-21.069 7.891-11.572 14.48-20.896 14.643-20.72.163.175 6.47 9.319 14.017 20.319 7.546 11 14.092 20.401 14.547 20.891.876.943 16.945-10.06 16.945-11.602 0-.489-6.806-9.676-15.123-20.416-8.318-10.739-14.731-19.893-14.25-20.342.48-.449 11.335-3.867 24.123-7.597 14.636-4.268 23.25-7.253 23.25-8.055 0-1.231-4.836-17.23-5.593-18.505-.205-.345-10.167 2.856-22.139 7.111-11.973 4.256-22.851 8.078-24.176 8.494l-2.407.756.705-25.618.706-25.617h-11.067c-10.946 0-11.062.025-10.609 2.25M82.75 605.196L34 635.336v22.525l48.088 30.07c26.448 16.538 48.386 30.051 48.75 30.028.742-.046 9.978-12.315 10.712-14.23.291-.757-16.81-11.922-44.559-29.091l-45.03-27.861 38.269-23.475c21.049-12.911 41.314-25.344 45.035-27.628 4.654-2.857 6.59-4.609 6.205-5.613-.861-2.245-8.904-14.978-9.47-14.992-.275-.007-22.437 13.55-49.25 30.127m1034.545-23.355c-2.312 3.718-4.431 7.412-4.707 8.209-.357 1.03 8.401 6.903 30.205 20.256 16.889 10.343 37.14 22.777 45.002 27.63l14.295 8.824-44.295 27.286c-24.362 15.008-44.686 27.626-45.165 28.04-.867.751 9.19 15.767 10.625 15.863.887.06 93.41-57.548 96.027-59.79 1.537-1.317 1.743-2.974 1.5-12.038l-.282-10.511-49-30.29c-26.95-16.66-49.225-30.279-49.5-30.265-.275.015-2.392 3.068-4.705 6.786M601.5 580.577c-13.048 5.421-22.962 7.157-48 8.403-26.822 1.335-35.944 4.329-47.072 15.451-12.644 12.639-16.654 31.198-10.37 47.996 2.291 6.121 9.112 14.311 14.736 17.692 2.038 1.226 3.896 2.378 4.129 2.561.232.182-1.711 2.376-4.319 4.875-9.163 8.779-11.784 19.28-7.227 28.945 2.947 6.248 5.542 8.651 13.126 12.155 5.845 2.7 6.591 2.786 29.497 3.421 18.465.512 24.571 1.024 28.5 2.391 9.972 3.468 14.731 9.132 14.731 17.533 0 5.626-1.952 9.67-6.666 13.809-6.498 5.705-23.573 8.881-42.109 7.831-21.306-1.206-28.75-5.753-30.926-18.89l-.621-3.75H489.722l.546 6.021c.86 9.486 3.578 15.817 9.263 21.575 9.38 9.502 23.816 12.903 51.469 12.128 19.54-.547 28.164-2.254 38.977-7.713 13.394-6.761 20.025-16.333 20.819-30.055.603-10.412-1.537-16.451-8.504-23.994-10.538-11.409-21.283-14.952-45.436-14.982-25.745-.032-32.943-1.741-35.144-8.345-1.337-4.009-.019-9.215 3.284-12.977l2.897-3.3 7.304 1.281c9.386 1.647 15.438 1.624 25.09-.097 24.791-4.419 39.889-22.666 38.507-46.537-.735-12.697-6.346-21.96-17.641-29.123L576.608 602h5.09c7.057 0 25.007-1.882 29.636-3.107 2.261-.599 3.649-1.503 3.385-2.204-.246-.654-1.727-5.126-3.29-9.939-1.562-4.812-3.086-8.731-3.385-8.708-.299.024-3.244 1.164-6.544 2.535m-213.153 9.518c-32.796 5.479-53.072 39.008-48.493 80.189 3.36 30.218 17.336 49.34 41.646 56.98 9.014 2.833 27.565 3.051 37.5.441 6.248-1.641 22.486-9.12 26.373-12.147 1.937-1.509 1.733-1.905-7.916-15.352-.116-.161-2.854 1.3-6.084 3.248-9.911 5.978-17.346 8.003-29.373 8-8.621-.002-11.531-.414-16.262-2.304-7.004-2.799-14.534-9.84-18.147-16.97-2.944-5.81-5.554-15.836-5.576-21.42l-.015-3.74 45.25-.26 45.25-.26-.173-13.5c-.196-15.316-2.209-24.952-7.427-35.551-10.16-20.638-32.391-31.391-56.553-27.354m146.132 16.649c-10.811 3.862-16.482 10.691-18.568 22.364-.984 5.506-.989 8.345-.025 13.579 1.985 10.771 6.079 16.716 14.494 21.045 6.795 3.496 20.761 4.378 28.519 1.802 6.731-2.236 12.985-8.507 15.572-15.618 2.312-6.353 2.681-19.996.72-26.624-1.82-6.151-6.946-12.276-12.691-15.167-6.719-3.381-20.516-4.061-28.021-1.381m-148.075 2.024c-13.051 4.662-21.662 17.442-23.918 35.495L361.77 650H432l-.017-3.75c-.074-15.802-8.597-31.398-19.983-36.562-6.376-2.892-18.825-3.339-25.596-.92M695 686.594c-8.234 3.567-13.34 11.569-13.34 20.906 0 23.673 31.573 31.074 41.964 9.837 3.572-7.301 3.058-16.453-1.275-22.706-5.649-8.155-18.415-11.906-27.349-8.037" fill="undefined" fill-rule="evenodd"/></svg>