<svg xmlns="http://www.w3.org/2000/svg" width="1240" height="1240"><path d="M596.5.701c-4.4.164-16.55.984-27 1.823C402.549 15.922 247.173 97.3 140.905 227 63.66 321.278 16.279 435.121 3.561 557c-5.306 50.855-3.953 104.529 3.945 156.5C41.207 935.257 192.713 1121.747 403 1200.317c70.261 26.252 140.316 38.905 216 39.013 56.242.08 101.109-5.5 155.5-19.337 234.792-59.733 413.998-253.73 455.892-493.517 4.712-26.974 8.608-64.135 8.608-82.117 0-4.532.45-8.519 1-8.859.599-.37 1-7.03 1-16.618 0-8.8-.38-15.765-.845-15.478-.464.287-1.125-6.549-1.467-15.191-.754-19.049-2.886-40.139-6.288-62.213-35.64-231.236-197.822-422.483-419.664-494.87C742.91 8.346 669.292-2.014 596.5.701M.407 620c0 9.075.152 12.788.337 8.25.185-4.538.185-11.962 0-16.5s-.337-.825-.337 8.25" fill="undefined" fill-rule="evenodd"/></svg>